<svg width="36" height="36" viewBox="0 0 36 36" fill="none" xmlns="http://www.w3.org/2000/svg">
<mask id="path-1-inside-1_16112_20565" fill="white">
<path d="M33.4667 19.5556H6.24444L17.9111 31.2222L16.4444 32.8889L2 18.4444L16.4444 4L17.9111 5.66667L6.24444 17.3333H33.4667V19.5556Z"/>
</mask>
<path d="M33.4667 19.5556H6.24444L17.9111 31.2222L16.4444 32.8889L2 18.4444L16.4444 4L17.9111 5.66667L6.24444 17.3333H33.4667V19.5556Z" fill="black"/>
<path d="M33.4667 19.5556V21.7778H35.6889V19.5556H33.4667ZM6.24444 19.5556V17.3333H0.879525L4.6731 21.1269L6.24444 19.5556ZM17.9111 31.2222L19.5794 32.6903L20.9567 31.1251L19.4825 29.6509L17.9111 31.2222ZM16.4444 32.8889L14.8731 34.4602L16.5479 36.1351L18.1127 34.3569L16.4444 32.8889ZM2 18.4444L0.428652 16.8731L-1.1427 18.4444L0.428652 20.0158L2 18.4444ZM16.4444 4L18.1127 2.53194L16.5479 0.753806L14.8731 2.42865L16.4444 4ZM17.9111 5.66667L19.4825 7.23801L20.9567 5.76377L19.5794 4.1986L17.9111 5.66667ZM6.24444 17.3333L4.6731 15.762L0.879525 19.5556H6.24444V17.3333ZM33.4667 17.3333H35.6889V15.1111H33.4667V17.3333ZM33.4667 19.5556V17.3333H6.24444V19.5556V21.7778H33.4667V19.5556ZM6.24444 19.5556L4.6731 21.1269L16.3398 32.7936L17.9111 31.2222L19.4825 29.6509L7.81579 17.9842L6.24444 19.5556ZM17.9111 31.2222L16.2429 29.7542L14.7762 31.4208L16.4444 32.8889L18.1127 34.3569L19.5794 32.6903L17.9111 31.2222ZM16.4444 32.8889L18.0158 31.3175L3.57135 16.8731L2 18.4444L0.428652 20.0158L14.8731 34.4602L16.4444 32.8889ZM2 18.4444L3.57135 20.0158L18.0158 5.57135L16.4444 4L14.8731 2.42865L0.428652 16.8731L2 18.4444ZM16.4444 4L14.7762 5.46806L16.2429 7.13473L17.9111 5.66667L19.5794 4.1986L18.1127 2.53194L16.4444 4ZM17.9111 5.66667L16.3398 4.09532L4.6731 15.762L6.24444 17.3333L7.81579 18.9047L19.4825 7.23801L17.9111 5.66667ZM6.24444 17.3333V19.5556H33.4667V17.3333V15.1111H6.24444V17.3333ZM33.4667 17.3333H31.2444V19.5556H33.4667H35.6889V17.3333H33.4667Z" fill="#0E0E0E" mask="url(#path-1-inside-1_16112_20565)"/>
</svg>
