<svg width="36" height="36" viewBox="0 0 36 36" fill="none" xmlns="http://www.w3.org/2000/svg">
<mask id="path-1-inside-1_16112_20567" fill="white">
<path d="M2.45716 17.4444L29.6794 17.4444L18.0127 5.77778L19.4794 4.11111L33.9238 18.5556L19.4794 33L18.0127 31.3333L29.6794 19.6667L2.45716 19.6667L2.45716 17.4444Z"/>
</mask>
<path d="M2.45716 17.4444L29.6794 17.4444L18.0127 5.77778L19.4794 4.11111L33.9238 18.5556L19.4794 33L18.0127 31.3333L29.6794 19.6667L2.45716 19.6667L2.45716 17.4444Z" fill="black"/>
<path d="M2.45716 17.4444L2.45716 15.2222L0.234938 15.2222L0.234938 17.4444L2.45716 17.4444ZM29.6794 17.4444L29.6794 19.6667L35.0443 19.6667L31.2507 15.8731L29.6794 17.4444ZM18.0127 5.77778L16.3445 4.30972L14.9671 5.87488L16.4414 7.34913L18.0127 5.77778ZM19.4794 4.11111L21.0507 2.53977L19.3759 0.864919L17.8111 2.64305L19.4794 4.11111ZM33.9238 18.5556L35.4952 20.1269L37.0665 18.5556L35.4952 16.9842L33.9238 18.5556ZM19.4794 33L17.8111 34.4681L19.3759 36.2462L21.0507 34.5713L19.4794 33ZM18.0127 31.3333L16.4414 29.762L14.9671 31.2362L16.3445 32.8014L18.0127 31.3333ZM29.6794 19.6667L31.2507 21.238L35.0443 17.4444L29.6794 17.4444L29.6794 19.6667ZM2.45716 19.6667L0.234938 19.6667L0.234939 21.8889L2.45716 21.8889L2.45716 19.6667ZM2.45716 17.4444L2.45716 19.6667L29.6794 19.6667L29.6794 17.4444L29.6794 15.2222L2.45716 15.2222L2.45716 17.4444ZM29.6794 17.4444L31.2507 15.8731L19.5841 4.20643L18.0127 5.77778L16.4414 7.34913L28.108 19.0158L29.6794 17.4444ZM18.0127 5.77778L19.681 7.24584L21.1476 5.57918L19.4794 4.11111L17.8111 2.64305L16.3445 4.30972L18.0127 5.77778ZM19.4794 4.11111L17.908 5.68246L32.3525 20.1269L33.9238 18.5556L35.4952 16.9842L21.0507 2.53977L19.4794 4.11111ZM33.9238 18.5556L32.3525 16.9842L17.908 31.4287L19.4794 33L21.0507 34.5713L35.4952 20.1269L33.9238 18.5556ZM19.4794 33L21.1476 31.5319L19.681 29.8653L18.0127 31.3333L16.3445 32.8014L17.8111 34.4681L19.4794 33ZM18.0127 31.3333L19.5841 32.9047L31.2507 21.238L29.6794 19.6667L28.108 18.0953L16.4414 29.762L18.0127 31.3333ZM29.6794 19.6667L29.6794 17.4444L2.45716 17.4444L2.45716 19.6667L2.45716 21.8889L29.6794 21.8889L29.6794 19.6667ZM2.45716 19.6667L4.67938 19.6667L4.67938 17.4444L2.45716 17.4444L0.234938 17.4444L0.234938 19.6667L2.45716 19.6667Z" fill="#0E0E0E" mask="url(#path-1-inside-1_16112_20567)"/>
</svg>
