<svg width="112" height="36" viewBox="0 0 112 36" fill="none" xmlns="http://www.w3.org/2000/svg">
<mask id="path-1-inside-1_16112_20564" fill="white">
<path d="M33.4667 19.5556H6.24444L17.9111 31.2222L16.4444 32.8889L2 18.4444L16.4444 4L17.9111 5.66667L6.24444 17.3333H33.4667V19.5556Z"/>
</mask>
<path d="M33.4667 19.5556H6.24444L17.9111 31.2222L16.4444 32.8889L2 18.4444L16.4444 4L17.9111 5.66667L6.24444 17.3333H33.4667V19.5556Z" fill="black"/>
<path d="M33.4667 19.5556V21.7778H35.6889V19.5556H33.4667ZM6.24444 19.5556V17.3333H0.879525L4.6731 21.1269L6.24444 19.5556ZM17.9111 31.2222L19.5794 32.6903L20.9567 31.1251L19.4825 29.6509L17.9111 31.2222ZM16.4444 32.8889L14.8731 34.4602L16.5479 36.1351L18.1127 34.3569L16.4444 32.8889ZM2 18.4444L0.428652 16.8731L-1.1427 18.4444L0.428652 20.0158L2 18.4444ZM16.4444 4L18.1127 2.53194L16.5479 0.753806L14.8731 2.42865L16.4444 4ZM17.9111 5.66667L19.4825 7.23801L20.9567 5.76377L19.5794 4.1986L17.9111 5.66667ZM6.24444 17.3333L4.6731 15.762L0.879525 19.5556H6.24444V17.3333ZM33.4667 17.3333H35.6889V15.1111H33.4667V17.3333ZM33.4667 19.5556V17.3333H6.24444V19.5556V21.7778H33.4667V19.5556ZM6.24444 19.5556L4.6731 21.1269L16.3398 32.7936L17.9111 31.2222L19.4825 29.6509L7.81579 17.9842L6.24444 19.5556ZM17.9111 31.2222L16.2429 29.7542L14.7762 31.4208L16.4444 32.8889L18.1127 34.3569L19.5794 32.6903L17.9111 31.2222ZM16.4444 32.8889L18.0158 31.3175L3.57135 16.8731L2 18.4444L0.428652 20.0158L14.8731 34.4602L16.4444 32.8889ZM2 18.4444L3.57135 20.0158L18.0158 5.57135L16.4444 4L14.8731 2.42865L0.428652 16.8731L2 18.4444ZM16.4444 4L14.7762 5.46806L16.2429 7.13473L17.9111 5.66667L19.5794 4.1986L18.1127 2.53194L16.4444 4ZM17.9111 5.66667L16.3398 4.09532L4.6731 15.762L6.24444 17.3333L7.81579 18.9047L19.4825 7.23801L17.9111 5.66667ZM6.24444 17.3333V19.5556H33.4667V17.3333V15.1111H6.24444V17.3333ZM33.4667 17.3333H31.2444V19.5556H33.4667H35.6889V17.3333H33.4667Z" fill="#0E0E0E" mask="url(#path-1-inside-1_16112_20564)"/>
<mask id="path-3-inside-2_16112_20564" fill="white">
<path d="M78.4572 17.4444L105.679 17.4444L94.0127 5.77778L95.4794 4.11111L109.924 18.5556L95.4794 33L94.0127 31.3333L105.679 19.6667L78.4572 19.6667L78.4572 17.4444Z"/>
</mask>
<path d="M78.4572 17.4444L105.679 17.4444L94.0127 5.77778L95.4794 4.11111L109.924 18.5556L95.4794 33L94.0127 31.3333L105.679 19.6667L78.4572 19.6667L78.4572 17.4444Z" fill="black"/>
<path d="M78.4572 17.4444L78.4572 15.2222L76.2349 15.2222L76.2349 17.4444L78.4572 17.4444ZM105.679 17.4444L105.679 19.6667L111.044 19.6667L107.251 15.8731L105.679 17.4444ZM94.0127 5.77778L92.3445 4.30972L90.9671 5.87488L92.4414 7.34913L94.0127 5.77778ZM95.4794 4.11111L97.0507 2.53977L95.3759 0.864919L93.8111 2.64305L95.4794 4.11111ZM109.924 18.5556L111.495 20.1269L113.067 18.5556L111.495 16.9842L109.924 18.5556ZM95.4794 33L93.8111 34.4681L95.3759 36.2462L97.0507 34.5713L95.4794 33ZM94.0127 31.3333L92.4414 29.762L90.9671 31.2362L92.3445 32.8014L94.0127 31.3333ZM105.679 19.6667L107.251 21.238L111.044 17.4444L105.679 17.4444L105.679 19.6667ZM78.4572 19.6667L76.2349 19.6667L76.2349 21.8889L78.4572 21.8889L78.4572 19.6667ZM78.4572 17.4444L78.4572 19.6667L105.679 19.6667L105.679 17.4444L105.679 15.2222L78.4572 15.2222L78.4572 17.4444ZM105.679 17.4444L107.251 15.8731L95.5841 4.20643L94.0127 5.77778L92.4414 7.34913L104.108 19.0158L105.679 17.4444ZM94.0127 5.77778L95.681 7.24584L97.1476 5.57918L95.4794 4.11111L93.8111 2.64305L92.3445 4.30972L94.0127 5.77778ZM95.4794 4.11111L93.908 5.68246L108.352 20.1269L109.924 18.5556L111.495 16.9842L97.0507 2.53977L95.4794 4.11111ZM109.924 18.5556L108.352 16.9842L93.908 31.4287L95.4794 33L97.0507 34.5713L111.495 20.1269L109.924 18.5556ZM95.4794 33L97.1476 31.5319L95.681 29.8653L94.0127 31.3333L92.3445 32.8014L93.8111 34.4681L95.4794 33ZM94.0127 31.3333L95.5841 32.9047L107.251 21.238L105.679 19.6667L104.108 18.0953L92.4414 29.762L94.0127 31.3333ZM105.679 19.6667L105.679 17.4444L78.4572 17.4444L78.4572 19.6667L78.4572 21.8889L105.679 21.8889L105.679 19.6667ZM78.4572 19.6667L80.6794 19.6667L80.6794 17.4444L78.4572 17.4444L76.2349 17.4444L76.2349 19.6667L78.4572 19.6667Z" fill="#0E0E0E" mask="url(#path-3-inside-2_16112_20564)"/>
</svg>
