<svg width="26" height="33" viewBox="0 0 26 33" fill="none" xmlns="http://www.w3.org/2000/svg">
<path d="M13.0004 7.20263C11.8738 7.20263 10.7725 7.53671 9.83576 8.16261C8.89902 8.78852 8.16892 9.67815 7.73779 10.719C7.30666 11.7598 7.19385 12.9052 7.41364 14.0101C7.63343 15.1151 8.17594 16.13 8.97257 16.9267C9.7692 17.7233 10.7842 18.2658 11.8891 18.4856C12.9941 18.7054 14.1394 18.5926 15.1802 18.1614C16.2211 17.7303 17.1107 17.0002 17.7366 16.0635C18.3625 15.1267 18.6966 14.0254 18.6966 12.8988C18.6966 11.3881 18.0965 9.93925 17.0282 8.87101C15.96 7.80276 14.5111 7.20263 13.0004 7.20263ZM13.0004 16.3166C12.3244 16.3166 11.6637 16.1161 11.1016 15.7406C10.5396 15.365 10.1015 14.8312 9.84283 14.2067C9.58415 13.5822 9.51647 12.895 9.64834 12.2321C9.78022 11.5691 10.1057 10.9601 10.5837 10.4821C11.0617 10.0042 11.6707 9.67866 12.3336 9.54678C12.9966 9.41491 13.6838 9.48259 14.3083 9.74127C14.9328 9.99995 15.4666 10.438 15.8421 11C16.2177 11.5621 16.4181 12.2229 16.4181 12.8988C16.4181 13.8053 16.058 14.6746 15.4171 15.3155C14.7761 15.9565 13.9068 16.3166 13.0004 16.3166ZM13.0004 0.367188C9.67795 0.370957 6.49267 1.69246 4.14335 4.04178C1.79402 6.39111 0.472519 9.57639 0.46875 12.8988C0.46875 17.3704 2.53505 22.1096 6.44976 26.6053C8.20879 28.6368 10.1885 30.4661 12.3525 32.0594C12.544 32.1936 12.7722 32.2656 13.0061 32.2656C13.24 32.2656 13.4682 32.1936 13.6597 32.0594C15.8197 30.4655 17.7956 28.6362 19.551 26.6053C23.46 22.1096 25.532 17.3704 25.532 12.8988C25.5283 9.57639 24.2068 6.39111 21.8574 4.04178C19.5081 1.69246 16.3228 0.370957 13.0004 0.367188ZM13.0004 29.7026C10.6464 27.8514 2.74723 21.0515 2.74723 12.8988C2.74723 10.1795 3.82747 7.57159 5.75031 5.64875C7.67315 3.72591 10.2811 2.64567 13.0004 2.64567C15.7197 2.64567 18.3276 3.72591 20.2505 5.64875C22.1733 7.57159 23.2536 10.1795 23.2536 12.8988C23.2536 21.0487 15.3544 27.8514 13.0004 29.7026Z" fill="#0E0E0E"/>
</svg>
